<svg width="1050" height="751" viewBox="0 0 1050 751" fill="none" xmlns="http://www.w3.org/2000/svg">
<g clip-path="url(#clip0)">
<path opacity="0.1" d="M525 750.87C814.949 750.87 1050 736.096 1050 717.87C1050 699.645 814.949 684.87 525 684.87C235.051 684.87 0 699.645 0 717.87C0 736.096 235.051 750.87 525 750.87Z" fill="#3287CA"/>
<path d="M967.65 693.43C967.658 696.038 967.389 698.639 966.85 701.19C966.75 701.67 966.64 702.19 966.53 702.6C963.69 713.99 955.68 722.32 946.12 722.85C945.8 722.85 945.48 722.85 945.12 722.85C935.01 722.85 926.46 714.13 923.64 702.12C923.56 701.8 923.49 701.48 923.42 701.12C922.881 698.569 922.612 695.968 922.62 693.36C922.62 677.09 932.69 663.91 945.12 663.91C957.55 663.91 967.65 677.18 967.65 693.43Z" fill="#3F3D56"/>
<path opacity="0.1" d="M967.65 693.43C967.657 696.038 967.389 698.639 966.85 701.19C966.75 701.67 966.64 702.19 966.53 702.6C966.19 702.6 965.86 702.6 965.53 702.6C963.053 702.467 960.592 702.132 958.17 701.6C956.024 702.263 953.831 702.765 951.61 703.1C949.907 703.356 948.191 703.517 946.47 703.58H944.73C942.67 703.58 940.612 703.443 938.57 703.17C935.268 702.729 932.025 701.924 928.9 700.77C927.189 701.34 925.446 701.807 923.68 702.17C923.6 701.85 923.53 701.53 923.46 701.17C922.92 698.619 922.652 696.018 922.66 693.41C922.66 677.14 932.73 663.96 945.16 663.96C957.59 663.96 967.65 677.18 967.65 693.43Z" fill="black"/>
<path d="M1015.65 638.58C1015.66 631.424 1013.98 624.366 1010.75 617.98L984.29 626.21L1007.52 612.55C1003.63 606.92 998.516 602.237 992.569 598.846C986.621 595.456 979.989 593.444 973.16 592.96C972.071 591.313 970.878 589.736 969.59 588.24L931.59 600.07L962.76 581.75C956.797 577.176 949.8 574.142 942.385 572.916C934.971 571.69 927.369 572.309 920.252 574.719C913.134 577.129 906.719 581.256 901.576 586.735C896.432 592.213 892.717 598.875 890.76 606.13L923.31 643.61L888 618.06C879.047 624.401 872.671 633.748 870.035 644.398C867.399 655.048 868.679 666.29 873.641 676.075C878.603 685.86 886.917 693.535 897.066 697.701C907.216 701.868 918.524 702.247 928.93 698.77C938.342 702.22 948.624 702.501 958.21 699.57C964.893 701.049 971.823 701.008 978.489 699.452C985.155 697.896 991.386 694.863 996.724 690.579C1002.06 686.294 1006.37 680.865 1009.33 674.694C1012.29 668.522 1013.83 661.765 1013.83 654.92C1013.83 653.92 1013.83 652.92 1013.73 651.92C1015.03 647.593 1015.67 643.097 1015.65 638.58Z" fill="#3287CA"/>
<path opacity="0.1" d="M1014.86 647.07C1000.89 644.416 986.556 644.234 972.52 646.53C956.63 649.16 940.39 654.94 924.85 650.71C915.73 648.23 907.85 642.49 898.94 639.31C890.345 636.303 881.083 635.745 872.19 637.7C868.798 645.807 867.813 654.72 869.352 663.372C870.891 672.025 874.889 680.051 880.868 686.492C886.846 692.933 894.554 697.516 903.068 699.693C911.582 701.87 920.543 701.55 928.88 698.77C938.292 702.22 948.574 702.501 958.16 699.57C964.843 701.049 971.773 701.008 978.439 699.452C985.105 697.896 991.336 694.864 996.674 690.579C1002.01 686.294 1006.32 680.865 1009.28 674.694C1012.24 668.522 1013.78 661.765 1013.78 654.92C1013.78 653.92 1013.78 652.92 1013.68 651.92C1014.16 650.326 1014.56 648.707 1014.86 647.07Z" fill="black"/>
<path d="M698.6 171.97H692.87C691.605 171.97 690.58 172.995 690.58 174.26V254.7C690.58 255.964 691.605 256.99 692.87 256.99H698.6C699.865 256.99 700.89 255.964 700.89 254.7V174.26C700.89 172.995 699.865 171.97 698.6 171.97Z" fill="#3F3D56"/>
<path d="M488.5 95.4902H485.71C484.882 95.4902 484.21 96.1618 484.21 96.9902V121.98C484.21 122.809 484.882 123.48 485.71 123.48H488.5C489.328 123.48 490 122.809 490 121.98V96.9902C490 96.1618 489.328 95.4902 488.5 95.4902Z" fill="#3F3D56"/>
<path d="M488.83 146.74H485.69C484.757 146.74 484 147.497 484 148.43V193.77C484 194.704 484.757 195.46 485.69 195.46H488.83C489.763 195.46 490.52 194.704 490.52 193.77V148.43C490.52 147.497 489.763 146.74 488.83 146.74Z" fill="#3F3D56"/>
<path d="M488.7 212.5H485.71C484.821 212.5 484.1 213.221 484.1 214.11V260.03C484.1 260.919 484.821 261.64 485.71 261.64H488.7C489.589 261.64 490.31 260.919 490.31 260.03V214.11C490.31 213.221 489.589 212.5 488.7 212.5Z" fill="#3F3D56"/>
<path d="M796.9 3H523.18C503.469 3 487.49 18.979 487.49 38.69V668.68C487.49 688.391 503.469 704.37 523.18 704.37H796.9C816.611 704.37 832.59 688.391 832.59 668.68V38.69C832.59 18.979 816.611 3 796.9 3Z" fill="#3F3D56"/>
<path d="M672.4 23.9395H629.29C627.887 23.9395 626.75 25.0766 626.75 26.4795V31.1895C626.75 32.5923 627.887 33.7295 629.29 33.7295H672.4C673.803 33.7295 674.94 32.5923 674.94 31.1895V26.4795C674.94 25.0766 673.803 23.9395 672.4 23.9395Z" fill="#E6E8EC"/>
<path d="M687.78 34.3803C690.845 34.3803 693.33 31.8955 693.33 28.8303C693.33 25.7651 690.845 23.2803 687.78 23.2803C684.715 23.2803 682.23 25.7651 682.23 28.8303C682.23 31.8955 684.715 34.3803 687.78 34.3803Z" fill="#E6E8EC"/>
<path d="M811.28 48.6698V658.67C811.277 665.938 808.388 672.907 803.248 678.045C798.108 683.183 791.138 686.07 783.87 686.07H536.21C528.942 686.07 521.972 683.183 516.832 678.045C511.692 672.907 508.803 665.938 508.8 658.67V48.6698C508.8 45.0702 509.509 41.5059 510.887 38.1804C512.264 34.8549 514.283 31.8332 516.828 29.288C519.374 26.7427 522.395 24.7237 525.721 23.3462C529.046 21.9687 532.611 21.2598 536.21 21.2598H573.27V26.0198C573.281 31.9997 575.663 37.7312 579.894 41.9569C584.125 46.1825 589.86 48.5571 595.84 48.5598H721.84C724.804 48.5598 727.739 47.976 730.477 46.8417C733.216 45.7075 735.704 44.045 737.799 41.9492C739.895 39.8533 741.558 37.3652 742.692 34.6269C743.826 31.8886 744.41 28.9537 744.41 25.9898V21.2598H783.92C791.181 21.273 798.14 24.1667 803.27 29.3056C808.399 34.4446 811.28 41.4088 811.28 48.6698Z" fill="white"/>
<path opacity="0.2" d="M810.65 300.253V507.683H808.48V507.893H506V254.473C507.94 252.259 509.907 249.963 511.9 247.583C554.38 196.853 612.12 183.503 656.81 182.103C687.43 181.103 717.91 187.433 747.01 200.003C762.38 206.643 784.44 213.923 808.48 214.643V293.063C809.95 297.253 810.65 300.253 810.65 300.253Z" fill="#3287CA"/>
<path opacity="0.2" d="M810.65 384.253V591.683H808.48V591.893H506V338.473C507.94 336.259 509.907 333.963 511.9 331.583C554.38 280.853 612.12 267.503 656.81 266.103C687.43 265.103 717.91 271.433 747.01 284.003C762.38 290.643 784.44 297.923 808.48 298.643V377.063C809.95 381.253 810.65 384.253 810.65 384.253Z" fill="#3287CA"/>
<path opacity="0.2" d="M810.65 387.253V594.683H808.48V594.893H506V341.473C507.94 339.259 509.907 336.963 511.9 334.583C554.38 283.853 612.12 270.503 656.81 269.103C687.43 268.103 717.91 274.433 747.01 287.003C762.38 293.643 784.44 300.923 808.48 301.643V380.063C809.95 384.253 810.65 387.253 810.65 387.253Z" fill="#3287CA"/>
<path opacity="0.2" d="M813.65 381.565V588.995H509V453.115C519.85 450.385 535 439.885 554.44 410.875C577.69 376.165 609.28 367.035 633.73 366.075C650.48 365.415 667.16 369.715 683.08 378.325C700.99 387.995 735.51 399.655 761.74 365.805C790.74 328.375 806.16 359.245 811.48 374.375C812.95 378.565 813.65 381.565 813.65 381.565Z" fill="#3287CA"/>
<path opacity="0.2" d="M826.37 535.572L734.977 721.783L461.491 587.555L521.36 465.575C532.302 467.905 550.529 465.154 580.762 447.676C616.927 426.761 649.308 432.483 671.68 442.394C687.007 449.182 700.086 460.391 710.584 475.134C722.402 491.706 748.253 517.383 786.714 498.553C829.239 477.729 829.48 512.235 827.59 528.161C827.064 532.57 826.37 535.572 826.37 535.572Z" fill="#3287CA"/>
<path d="M767 287H549C542.373 287 537 292.373 537 299V351C537 357.627 542.373 363 549 363H767C773.627 363 779 357.627 779 351V299C779 292.373 773.627 287 767 287Z" fill="#3F3D56"/>
<path d="M134.06 683.72L153.2 672.43C150.612 668.009 147.303 664.051 143.41 660.72L107.3 671.99L135.6 655.35C128.595 651.512 120.711 649.565 112.724 649.7C104.737 649.835 96.9235 652.047 90.0515 656.119C83.1795 660.19 77.4862 665.981 73.5319 672.922C69.5777 679.862 67.4989 687.712 67.5 695.7C67.5 721.11 88.09 721.99 113.5 721.99C138.91 721.99 159.5 721.11 159.5 695.7C159.509 689.272 158.163 682.913 155.55 677.04L134.06 683.72Z" fill="#3287CA"/>
<path opacity="0.1" d="M138.93 708.43C136.893 706.387 134.616 704.597 132.15 703.1C128.67 700.79 125.08 698.44 120.98 697.65C117.38 696.96 113.67 697.54 109.98 697.34C103.613 696.948 97.6208 694.199 93.17 689.63C90.56 686.93 88.5 683.63 85.36 681.54C81.97 679.32 77.67 678.84 73.65 679.39C72.485 679.566 71.3301 679.803 70.19 680.1C68.3853 685.106 67.4649 690.388 67.47 695.71C67.47 721.12 88.06 722 113.47 722C125.8 722 136.99 721.79 145.25 718.67L143.87 716.09C142.554 713.338 140.894 710.764 138.93 708.43Z" fill="black"/>
<path d="M824.45 591H498.45V692H824.45V591Z" fill="#3F3D56"/>
<path d="M824.45 591H498.45V692H824.45V591Z" fill="#3F3D56"/>
<path d="M261 34.1298L245.48 43.9698L254.9 26.8398C252.23 24.7088 248.926 23.5298 245.51 23.4898H245.26C244.182 23.5055 243.104 23.4252 242.04 23.2498L236.78 26.5798L239.04 22.4798C235.308 21.1816 232.086 18.7301 229.84 15.4798L220.42 21.4798L226.37 10.6698C220.86 4.05976 213.44 0.00976562 205.28 0.00976562C195.49 0.00976562 186.77 5.82977 181.14 14.8998C179.475 17.6232 177.116 19.8549 174.304 21.3661C171.493 22.8773 168.33 23.6137 165.14 23.4998H164.61C153.8 23.4998 145.04 35.7498 145.04 50.8698C145.04 65.9898 153.8 78.2398 164.61 78.2398C166.988 78.2286 169.328 77.6419 171.43 76.5298C175.107 74.7399 179.13 73.7717 183.219 73.6922C187.308 73.6128 191.366 74.4241 195.11 76.0698C198.278 77.487 201.709 78.2195 205.18 78.2195C208.651 78.2195 212.082 77.487 215.25 76.0698C218.968 74.458 222.989 73.6649 227.04 73.7443C231.091 73.8236 235.078 74.7736 238.73 76.5298C240.81 77.6185 243.122 78.1913 245.47 78.1998C256.28 78.1998 265.04 65.9398 265.04 50.8298C265.114 45.0125 263.725 39.2699 261 34.1298Z" fill="#F2F2F2"/>
<path opacity="0.03" d="M231.74 74.1799C226.103 73.1109 220.276 73.7445 215 75.9999C211.831 77.4141 208.4 78.1449 204.93 78.1449C201.46 78.1449 198.029 77.4141 194.86 75.9999C191.115 74.3578 187.057 73.5493 182.968 73.6304C178.88 73.7116 174.857 74.6804 171.18 76.4699C169.077 77.5779 166.737 78.1611 164.36 78.1699C154.76 78.1699 146.77 68.4999 145.11 55.7399C147.024 54.3371 148.653 52.5825 149.91 50.5699C155.54 41.4899 164.26 35.6699 174.05 35.6699C183.84 35.6699 192.45 41.4199 198.05 50.3999C199.735 53.1008 202.089 55.3214 204.883 56.8471C207.677 58.3729 210.817 59.1522 214 59.1099H214.25C221.9 59.1099 228.52 65.2399 231.74 74.1799Z" fill="black"/>
<path d="M792 253.17L784.26 258.08L788.96 249.53C787.628 248.47 785.982 247.882 784.28 247.86H784.15C783.614 247.869 783.079 247.833 782.55 247.75L779.88 249.43L781.01 247.38C779.15 246.735 777.543 245.517 776.42 243.9L771.72 246.9L774.72 241.51C773.471 239.899 771.879 238.585 770.06 237.665C768.24 236.745 766.238 236.241 764.2 236.19C759.32 236.19 754.97 239.09 752.2 243.62C751.366 244.98 750.186 246.094 748.78 246.848C747.375 247.602 745.794 247.968 744.2 247.91H743.94C738.55 247.91 734.18 254.03 734.18 261.56C734.18 269.09 738.55 275.22 743.94 275.22C745.125 275.215 746.292 274.924 747.34 274.37C749.174 273.477 751.179 272.993 753.219 272.952C755.258 272.911 757.282 273.313 759.15 274.13C760.721 274.841 762.425 275.213 764.15 275.22C765.872 275.214 767.574 274.854 769.15 274.16C771.004 273.357 773.009 272.96 775.029 272.998C777.049 273.036 779.038 273.507 780.86 274.38C781.896 274.927 783.049 275.215 784.22 275.22C789.61 275.22 793.98 269.1 793.98 261.56C794.038 258.641 793.357 255.755 792 253.17Z" fill="#F2F2F2"/>
<path opacity="0.03" d="M777.37 277.15C774.555 276.61 771.643 276.927 769.01 278.06C767.436 278.762 765.733 279.124 764.01 279.124C762.287 279.124 760.584 278.762 759.01 278.06C757.142 277.244 755.118 276.841 753.08 276.881C751.041 276.921 749.035 277.401 747.2 278.29C746.153 278.848 744.986 279.143 743.8 279.15C739.01 279.15 735.03 274.32 734.2 267.96C735.155 267.262 735.966 266.386 736.59 265.38C739.4 260.85 743.75 257.95 748.59 257.95C753.43 257.95 757.77 260.82 760.59 265.29C761.43 266.649 762.61 267.767 764.012 268.533C765.415 269.299 766.992 269.688 768.59 269.66H768.71C772.46 269.63 775.77 272.69 777.37 277.15Z" fill="black"/>
<path d="M809.13 129.66L821.56 137.55L814 123.82C816.14 122.117 818.785 121.174 821.52 121.14H821.72C822.584 121.153 823.447 121.09 824.3 120.95L828.52 123.62L826.71 120.34C829.694 119.294 832.272 117.334 834.08 114.74L841.63 119.52L836.86 110.86C841.27 105.56 847.22 102.32 853.76 102.32C861.61 102.32 868.59 106.98 873.1 114.25C874.434 116.426 876.32 118.209 878.566 119.42C880.813 120.63 883.34 121.223 885.89 121.14H886.31C894.97 121.14 901.99 130.96 901.99 143.07C901.99 155.18 894.99 165 886.31 165C884.406 164.99 882.533 164.52 880.85 163.63C877.9 162.192 874.672 161.414 871.391 161.35C868.11 161.286 864.854 161.938 861.85 163.26C859.312 164.394 856.564 164.98 853.785 164.98C851.006 164.98 848.258 164.394 845.72 163.26C842.742 161.967 839.521 161.33 836.276 161.392C833.03 161.454 829.836 162.214 826.91 163.62C825.239 164.49 823.384 164.95 821.5 164.96C812.84 164.96 805.82 155.14 805.82 143.03C805.788 138.367 806.926 133.77 809.13 129.66Z" fill="#F2F2F2"/>
<path opacity="0.03" d="M832.56 161.75C837.086 160.888 841.765 161.396 846 163.21C848.538 164.344 851.286 164.93 854.065 164.93C856.844 164.93 859.593 164.344 862.13 163.21C865.135 161.892 868.391 161.243 871.672 161.309C874.953 161.375 878.18 162.153 881.13 163.59C882.814 164.477 884.687 164.944 886.59 164.95C894.28 164.95 900.68 157.2 902.02 146.95C900.478 145.832 899.17 144.422 898.17 142.8C893.66 135.54 886.67 130.87 878.83 130.87C870.99 130.87 864.08 135.48 859.57 142.67C858.222 144.838 856.338 146.622 854.099 147.848C851.86 149.074 849.343 149.702 846.79 149.67H846.59C840.45 149.68 835.14 154.59 832.56 161.75Z" fill="black"/>
<path d="M242.119 698.707L229.121 690.347L255.181 636.234L274.366 648.571L242.119 698.707Z" fill="#FFB6B6"/>
<path d="M248.165 696.595L222.565 680.132L222.564 680.131C218.237 677.349 212.982 676.4 207.955 677.492C202.928 678.584 198.541 681.628 195.758 685.954L195.417 686.484L237.332 713.438L248.165 696.595Z" fill="#2F2E41"/>
<path d="M313.744 399.601C319.378 397.918 324.611 395.106 329.124 391.337C333.637 387.567 337.335 382.919 339.995 377.675C342.654 372.431 344.218 366.7 344.593 360.833C344.967 354.965 344.143 349.082 342.171 343.543C338.013 331.804 328.587 323.152 322.968 312.217C317.464 301.487 316.179 289.085 319.365 277.454C322.552 265.824 329.979 255.808 340.184 249.381C341.356 248.639 342.558 247.949 343.791 247.311C344.955 246.705 343.926 244.945 342.762 245.551C332.233 251.016 323.974 260.026 319.445 270.99C314.916 281.954 314.407 294.165 318.01 305.467C319.996 311.333 322.87 316.86 326.532 321.856C330.048 326.885 333.894 331.706 336.932 337.053C340.053 342.488 341.928 348.548 342.422 354.796C342.916 361.044 342.017 367.323 339.789 373.181C337.727 378.349 334.655 383.053 330.751 387.017C326.847 390.981 322.191 394.126 317.056 396.268C315.795 396.79 314.507 397.24 313.202 397.635C312.949 397.714 312.738 397.888 312.611 398.12C312.485 398.353 312.453 398.625 312.523 398.88C312.594 399.135 312.76 399.352 312.988 399.487C313.215 399.621 313.486 399.662 313.744 399.601H313.744Z" fill="#F0F0F0"/>
<path d="M343.333 266.338C332.193 266.338 323.162 257.308 323.162 246.169C323.162 235.03 332.193 226 343.333 226C354.473 226 363.503 235.03 363.503 246.169C363.503 257.308 354.473 266.338 343.333 266.338Z" fill="#F0F0F0"/>
<path d="M331.987 316.76C325.024 316.76 319.38 311.116 319.38 304.154C319.38 297.193 325.024 291.549 331.987 291.549C338.949 291.549 344.593 297.193 344.593 304.154C344.593 311.116 338.949 316.76 331.987 316.76Z" fill="#F0F0F0"/>
<path d="M322.02 468.011C322.233 468.8 322.383 469.605 322.469 470.417L387.303 504.464L402.357 494.984L419.634 515.831L394.615 535.203C392.594 536.768 390.119 537.635 387.563 537.674C385.007 537.713 382.507 536.922 380.439 535.42L313.035 486.457C310.129 487.666 306.923 487.961 303.845 487.304C300.767 486.647 297.961 485.068 295.802 482.777C293.643 480.487 292.233 477.594 291.759 474.482C291.284 471.371 291.768 468.189 293.147 465.359C294.525 462.53 296.732 460.187 299.475 458.642C302.217 457.098 305.365 456.425 308.5 456.712C311.634 457 314.607 458.236 317.022 460.254C319.437 462.272 321.18 464.978 322.02 468.011Z" fill="#FFB6B6"/>
<path d="M431.142 605.756L331.357 541.874C331.357 541.874 313.022 540.104 302.019 561.788L235.561 657.242L263.915 676.426L337.66 599.859L388.263 649.901C388.263 649.901 313.707 637.676 316.229 686.837C318.23 725.852 420.271 712.469 462.308 705.282C470.292 703.98 477.891 700.935 484.567 696.366C491.243 691.796 496.831 685.813 500.934 678.842C505.443 671.023 507.866 662.146 504.079 653.753C493.981 631.373 431.142 605.756 431.142 605.756Z" fill="#2F2E41"/>
<path d="M480.61 659.145L509.366 653.326L501.171 512.2L468.083 471.675L448.37 468.185C442.493 467.119 436.43 468.3 431.383 471.494C426.336 474.687 422.673 479.66 421.121 485.427L412.431 517.167C397.688 542.127 418.342 571.069 420.247 573.641L419.173 617.413L480.61 659.145Z" fill="#3687C1"/>
<path d="M453.834 477.203L452.009 470.749C452.009 470.749 432.209 456.157 401.953 493.973L416.451 519.814L447.967 518.554L453.834 477.203Z" fill="#3687C1"/>
<path d="M408.285 426.979C402.676 449.972 424.787 451.68 451.015 458.078C477.244 464.475 497.658 473.139 503.267 450.147C508.876 427.154 508.433 383.864 471.328 374.813C432.945 365.451 413.895 403.986 408.285 426.979Z" fill="#2F2E41"/>
<path d="M458.979 459.016C440.812 459.016 426.085 444.29 426.085 426.125C426.085 407.959 440.812 393.233 458.979 393.233C477.146 393.233 491.873 407.959 491.873 426.125C491.873 444.29 477.146 459.016 458.979 459.016Z" fill="#FFB6B6"/>
<path d="M496.667 431.996L484.027 428.913L482.26 411.941L477.336 427.281L471.295 425.808L470.264 415.907L467.392 424.855L422.503 413.907C423.587 409.464 425.535 405.279 428.236 401.59C430.937 397.901 434.339 394.779 438.246 392.405C442.154 390.03 446.491 388.448 451.01 387.749C455.529 387.05 460.142 387.248 464.584 388.332L471.09 389.919C475.532 391.002 479.718 392.95 483.407 395.651C487.097 398.352 490.219 401.753 492.594 405.661C494.969 409.568 496.551 413.905 497.25 418.423C497.949 422.942 497.75 427.554 496.667 431.996Z" fill="#2F2E41"/>
<path d="M86.1554 472.081H307.839C309.206 472.08 310.516 471.536 311.482 470.57C312.449 469.603 312.993 468.293 312.994 466.926V329.803C312.993 328.437 312.449 327.126 311.482 326.16C310.516 325.194 309.206 324.65 307.839 324.648H86.1554C84.7886 324.65 83.4782 325.194 82.5117 326.16C81.5452 327.126 81.0016 328.437 81 329.803V466.926C81.0016 468.293 81.5452 469.603 82.5117 470.57C83.4782 471.536 84.7886 472.08 86.1554 472.081Z" fill="white"/>
<path d="M86.1554 472.081H307.839C309.206 472.08 310.516 471.536 311.482 470.57C312.449 469.603 312.993 468.293 312.994 466.926V329.803C312.993 328.437 312.449 327.126 311.482 326.16C310.516 325.194 309.206 324.65 307.839 324.648H86.1554C84.7886 324.65 83.4782 325.194 82.5117 326.16C81.5452 327.126 81.0016 328.437 81 329.803V466.926C81.0016 468.293 81.5452 469.603 82.5117 470.57C83.4782 471.536 84.7886 472.08 86.1554 472.081ZM307.839 326.71C308.659 326.711 309.445 327.038 310.025 327.617C310.605 328.197 310.931 328.983 310.932 329.803V466.926C310.931 467.746 310.605 468.532 310.025 469.112C309.445 469.692 308.659 470.018 307.839 470.019H86.1554C85.3353 470.018 84.549 469.692 83.9691 469.112C83.3892 468.532 83.0631 467.746 83.0622 466.926V329.803C83.0631 328.983 83.3892 328.197 83.9691 327.617C84.549 327.038 85.3353 326.711 86.1554 326.71H307.839Z" fill="#CACACA"/>
<path d="M129.977 387.023H264.018C264.628 387.024 265.232 386.905 265.796 386.672C266.36 386.439 266.872 386.098 267.304 385.667C267.735 385.236 268.078 384.724 268.311 384.161C268.545 383.597 268.665 382.994 268.665 382.384C268.665 381.774 268.545 381.17 268.311 380.606C268.078 380.043 267.735 379.531 267.304 379.1C266.872 378.669 266.36 378.328 265.796 378.095C265.232 377.862 264.628 377.743 264.018 377.744H129.977C128.746 377.744 127.566 378.233 126.696 379.103C125.826 379.973 125.337 381.153 125.337 382.384C125.337 383.614 125.826 384.794 126.696 385.664C127.566 386.534 128.746 387.023 129.977 387.023Z" fill="#3687C1"/>
<path d="M129.977 418.984H264.018C264.629 418.986 265.234 418.868 265.799 418.636C266.364 418.404 266.878 418.063 267.311 417.632C267.743 417.201 268.087 416.688 268.321 416.124C268.556 415.56 268.676 414.955 268.676 414.345C268.676 413.734 268.556 413.129 268.321 412.565C268.087 412.001 267.743 411.488 267.311 411.057C266.878 410.626 266.364 410.285 265.799 410.053C265.234 409.821 264.629 409.703 264.018 409.705H129.977C128.749 409.71 127.574 410.201 126.708 411.071C125.842 411.94 125.355 413.117 125.355 414.345C125.355 415.572 125.842 416.749 126.708 417.619C127.574 418.488 128.749 418.979 129.977 418.984Z" fill="#3687C1"/>
<path d="M402.645 588.772C403.436 588.978 404.209 589.246 404.957 589.574L466.669 550.151L465.898 532.379L492.57 527.711L496.992 559.041C497.349 561.572 496.875 564.15 495.642 566.389C494.409 568.628 492.483 570.407 490.153 571.458L414.211 605.718C413.82 608.842 412.487 611.771 410.391 614.119C408.294 616.466 405.532 618.119 402.472 618.859C399.413 619.598 396.2 619.389 393.263 618.259C390.325 617.128 387.802 615.13 386.027 612.53C384.253 609.931 383.312 606.852 383.33 603.705C383.348 600.558 384.324 597.49 386.128 594.911C387.932 592.332 390.479 590.363 393.429 589.266C396.38 588.17 399.594 587.997 402.645 588.772H402.645Z" fill="#FFB6B6"/>
<path d="M463.092 478.118L467.743 472.255C467.743 472.255 486.417 466.241 496.503 491.452C506.588 516.663 497.133 541.244 497.133 541.244L453.01 545.026L449.858 504.058L463.092 478.118Z" fill="#3687C1"/>
<path d="M655 637L666.154 648.154L655 659.308" stroke="white" stroke-width="3.71795" stroke-linecap="round" stroke-linejoin="round"/>
<path d="M668.846 637L680 648.154L668.846 659.308" stroke="white" stroke-width="3.71795" stroke-linecap="round" stroke-linejoin="round"/>
<path d="M600.148 339.523C597.534 339.523 595.539 338.815 594.163 337.398C592.787 335.981 592.099 333.938 592.099 331.269V322.601H588.55V316.699H592.099V309.063H599.818V316.699H605.183V322.601H599.818V330.526C599.818 332.314 600.588 333.208 602.129 333.208C602.569 333.208 603.03 333.153 603.512 333.043C603.993 332.933 604.454 332.782 604.894 332.589L604.903 338.506C603.358 339.333 602.404 339.523 600.148 339.523V339.523Z" fill="white"/>
<path d="M709.686 339.523C707.072 339.523 705.077 338.815 703.701 337.398C702.325 335.981 701.637 333.938 701.637 331.269V322.601H698.088V316.699H701.637V309.063H709.355V316.699H714.721V322.601H709.355V330.526C709.355 332.314 710.126 333.208 711.667 333.208C712.107 333.208 712.568 333.153 713.05 333.043C713.531 332.933 713.992 332.782 714.432 332.589L714.44 338.506C712.896 339.333 711.942 339.523 709.686 339.523V339.523Z" fill="white"/>
<path d="M614.463 310.962C614.463 311.705 614.284 312.379 613.926 312.985C613.569 313.59 613.074 314.065 612.441 314.409C611.808 314.752 611.106 314.924 610.336 314.924C609.565 314.924 608.87 314.752 608.251 314.409C607.632 314.065 607.144 313.59 606.786 312.985C606.428 312.379 606.25 311.705 606.25 310.962C606.25 310.219 606.428 309.545 606.786 308.94C607.144 308.335 607.632 307.86 608.251 307.516C608.87 307.172 609.565 307 610.336 307C611.106 307 611.808 307.172 612.441 307.516C613.074 307.86 613.569 308.335 613.926 308.94C614.284 309.545 614.463 310.219 614.463 310.962ZM606.497 338.904V316.699H614.215V338.904H606.497Z" fill="white"/>
<path d="M615.784 338.903V316.698H622.924L623.131 319.711C623.736 318.583 624.589 317.696 625.69 317.049C626.79 316.403 628.056 316.079 629.487 316.079C631.055 316.079 632.41 316.458 633.552 317.214C634.694 317.971 635.581 319.051 636.214 320.454C636.847 321.857 637.163 323.495 637.163 325.366V338.903H629.445V326.521C629.445 325.476 629.198 324.637 628.702 324.004C628.207 323.371 627.533 323.055 626.68 323.055C626.047 323.055 625.497 323.206 625.029 323.508C624.562 323.811 624.19 324.224 623.915 324.747C623.64 325.269 623.502 325.861 623.502 326.521V338.903H615.784V338.903Z" fill="white"/>
<path d="M663.672 318.298L663.674 307.949H671.392V319.258C672.136 318.267 673.071 317.49 674.199 316.926C675.327 316.362 676.552 316.08 677.872 316.08C679.248 316.08 680.528 316.376 681.711 316.967C682.894 317.559 683.926 318.384 684.806 319.444C685.687 320.503 686.375 321.735 686.87 323.138C687.365 324.541 687.613 326.054 687.613 327.678C687.613 329.356 687.351 330.911 686.829 332.342C686.306 333.772 685.577 335.024 684.641 336.098C683.706 337.171 682.612 338.01 681.36 338.615C680.108 339.22 678.753 339.523 677.294 339.523C675.919 339.523 674.694 339.241 673.621 338.677C672.548 338.113 671.668 337.295 670.98 336.221L670.815 338.904H663.674L663.846 331.89L667.157 319.237L663.672 318.298V318.298ZM675.52 332.589C676.345 332.589 677.075 332.383 677.707 331.97C678.34 331.557 678.842 330.993 679.214 330.278C679.585 329.562 679.771 328.751 679.771 327.843C679.771 326.935 679.585 326.123 679.214 325.408C678.842 324.692 678.34 324.128 677.707 323.715C677.075 323.303 676.345 323.096 675.52 323.096C674.722 323.096 674.006 323.303 673.374 323.715C672.741 324.128 672.246 324.692 671.888 325.408C671.53 326.123 671.351 326.935 671.351 327.843C671.351 328.751 671.53 329.562 671.888 330.278C672.246 330.993 672.741 331.557 673.374 331.97C674.006 332.383 674.722 332.589 675.52 332.589Z" fill="white"/>
<path d="M696.995 310.962C696.995 311.705 696.816 312.379 696.458 312.985C696.1 313.59 695.605 314.065 694.972 314.409C694.339 314.752 693.638 314.924 692.867 314.924C692.097 314.924 691.402 314.752 690.783 314.409C690.164 314.065 689.675 313.59 689.318 312.985C688.96 312.379 688.781 311.705 688.781 310.962C688.781 310.219 688.96 309.545 689.318 308.94C689.675 308.335 690.164 307.86 690.783 307.516C691.402 307.172 692.097 307 692.867 307C693.638 307 694.339 307.172 694.972 307.516C695.605 307.86 696.1 308.335 696.458 308.94C696.816 309.545 696.995 310.219 696.995 310.962ZM689.029 338.904V316.699H696.747V338.904H689.029Z" fill="white"/>
<path d="M721.717 339.11C720.864 339.11 720.094 338.904 719.406 338.491C718.718 338.078 718.175 337.528 717.776 336.84C717.377 336.152 717.177 335.381 717.177 334.529C717.177 333.676 717.377 332.905 717.776 332.217C718.175 331.529 718.718 330.979 719.406 330.566C720.094 330.154 720.864 329.947 721.717 329.947C722.57 329.947 723.341 330.154 724.029 330.566C724.716 330.979 725.26 331.529 725.659 332.217C726.058 332.905 726.257 333.676 726.257 334.529C726.257 335.381 726.058 336.152 725.659 336.84C725.26 337.528 724.716 338.078 724.029 338.491C723.341 338.904 722.57 339.11 721.717 339.11Z" fill="#45BFE4"/>
<path d="M645.879 338.574C644.562 338.221 643.413 337.61 642.433 336.74C641.452 335.87 640.667 334.821 640.08 333.591C639.492 332.36 639.141 331.01 639.027 329.54C638.912 328.07 639.064 326.557 639.48 325.004C639.91 323.397 640.561 321.969 641.432 320.721C642.303 319.472 643.324 318.454 644.495 317.667C645.665 316.88 646.927 316.357 648.281 316.099C649.635 315.84 651.009 315.898 652.405 316.272C653.722 316.625 654.822 317.209 655.704 318.024C656.587 318.84 657.219 319.849 657.603 321.052L658.449 318.527L665.283 320.358L657.609 349L650.221 347.021L652.857 337.184C651.892 337.941 650.804 338.447 649.592 338.701C648.381 338.955 647.143 338.913 645.879 338.574V338.574ZM649.891 332.451C650.655 332.655 651.392 332.642 652.104 332.409C652.816 332.176 653.434 331.763 653.96 331.17C654.486 330.577 654.866 329.846 655.098 328.977C655.331 328.108 655.368 327.285 655.21 326.508C655.05 325.732 654.721 325.065 654.221 324.507C653.721 323.95 653.089 323.569 652.326 323.364C651.562 323.16 650.817 323.172 650.093 323.401C649.368 323.631 648.736 324.04 648.197 324.629C647.658 325.219 647.272 325.948 647.039 326.818C646.806 327.687 646.776 328.511 646.948 329.291C647.12 330.071 647.463 330.742 647.976 331.303C648.489 331.863 649.127 332.246 649.891 332.451V332.451Z" fill="white"/>
</g>
<defs>
<clipPath id="clip0">
<rect width="1050" height="750.87" fill="white"/>
</clipPath>
</defs>
</svg>
